<svg width="535" height="165" viewBox="0 0 535 165" fill="none" xmlns="http://www.w3.org/2000/svg">
<path d="M217 15L421 9L507 59V153H267L217 15Z" fill="#E7D102"/>
<path d="M24 47L167 30L264 59V153H24V47Z" fill="#2EBC68"/>
<path fill-rule="evenodd" clip-rule="evenodd" d="M0 165H535V0H0V165ZM315 15.423C329.001 17.948 339.225 22.661 350.163 31.634C359.205 39.051 361.263 44.828 356.545 49.545C352.895 53.196 349.66 52.693 344.207 47.626C338.156 42.002 330.074 36.913 322.5 33.956C317.299 31.925 314.701 31.605 303 31.556C291.441 31.508 288.55 31.828 282.891 33.784C275.123 36.47 268.742 40.348 260.974 47.104C257.528 50.101 254.395 52 252.895 52C246.995 52 243.536 45.731 246.39 40.212C248.359 36.405 258.006 28.106 265 24.202C281.167 15.178 297.625 12.289 315 15.423ZM216.5 49C216.84 49.55 216.425 50 215.578 50C213.655 50 212.362 54.761 213.704 56.905C214.253 57.782 215.89 58.642 217.342 58.816C219.376 59.059 220.255 58.535 221.165 56.537C222.755 53.048 223.965 55.056 223.985 61.217C223.998 65.269 223.515 66.418 220.559 69.374C218.667 71.267 215.743 73.117 214.063 73.486C207.427 74.944 199.769 69.617 198.459 62.632C197.602 58.064 200.131 52.5 204.19 50.026C207.68 47.898 215.42 47.253 216.5 49ZM313.869 49.453C321.291 51.428 329.367 55.538 333.514 59.449C337.621 63.322 338.097 67.335 334.927 71.365C332.183 74.854 328.058 74.8 322.68 71.207C317.571 67.793 313.539 66 310.967 66C309.096 66 309.019 67.087 308.764 97.25L308.5 128.5H294.5L293.5 66.5L291 66.815C289.625 66.989 285.957 68.677 282.849 70.565C276.513 74.417 272.145 74.923 269.591 72.101C267.781 70.1 267.248 65.847 268.388 62.495C269.807 58.323 281.865 51.432 291.912 49.051C297.592 47.705 308.019 47.896 313.869 49.453ZM95 72H68.919L69.5 88.5H93.5L94.098 99.938L69.5 100.5L68.945 129H55V60H95V72ZM451.785 70.75C451.942 76.388 452.259 81 452.491 81C452.722 81 454.569 79.875 456.595 78.5C459.589 76.468 461.495 76 466.772 76C477.687 76 482.545 80.678 484.909 93.465C486.18 100.341 486.355 125.893 485.144 127.802C484.57 128.706 482.36 129.011 477.909 128.802L471.5 128.5L471 111.5C470.681 100.663 470.05 93.713 469.258 92.33C468.574 91.137 466.43 89.637 464.492 88.997C461.482 88.004 460.497 88.11 457.736 89.722C452.544 92.755 452.031 94.819 452.015 112.75L452 129H438V59.909L451.5 60.5L451.785 70.75ZM248.5 77.5L263 78.088V88H248L248.015 100.75C248.024 107.763 248.37 114.034 248.786 114.687C249.924 116.477 254.649 118 259.065 118H263V129H255.52C245.968 129 240.786 127 237.769 122.149C235.719 118.852 235.467 117.03 235.16 103.25L234.821 88H226.895L227.5 77.594L234.5 77.5L234.775 71.5C235.174 62.81 235.136 62.856 241.738 63.2L247.5 63.5L248.5 77.5ZM413.836 77.187C420.541 79.246 428 88.342 428 94.46C428 96.915 427.787 97 421.599 97C415.338 97 415.152 96.923 413.123 93.485C408.094 84.96 396.187 86.843 392.942 96.677C391.475 101.121 392.27 109.955 394.433 113.257C396.465 116.359 400.094 118.009 404.797 117.968C409.091 117.931 410.893 116.751 413.528 112.25C415.355 109.13 415.682 109 421.716 109H428L427.984 112.25C427.943 120.298 419.733 128.244 409.499 130.141C397.242 132.413 386.201 127.518 381.064 117.535C378.045 111.669 377.048 100.12 378.999 93.61C383.289 79.29 398.039 72.337 413.836 77.187ZM357.3 77.612C366.249 82.12 372.74 93.458 371.833 103L371.5 106.5L352.75 106.772C340.758 106.946 334 107.414 334 108.072C334 109.756 336.66 114.384 338.648 116.158C340.428 117.747 344.519 118.453 350.165 118.145C351.694 118.062 354.038 116.721 355.662 115C358.17 112.342 359.15 112 364.247 112C369.548 112 370 112.177 369.996 114.25C369.992 116.737 366.655 122.725 364.123 124.787C363.231 125.514 360.314 127.17 357.642 128.467C351.461 131.467 340.522 131.327 334.33 128.168C324.828 123.321 319.371 112.674 320.209 100.622C320.936 90.171 326.714 81.175 335 77.592C339.846 75.496 353.122 75.508 357.3 77.612ZM136 89L131.75 89.004C126.654 89.008 121.343 91.968 119.975 95.566C119.439 96.976 119 105.096 119 113.611V129.091L105.5 128.5L104.966 78H116L116.08 89.5L117.665 86.5C121.121 79.959 125.514 77.109 132.25 77.039L136 77V89ZM189 103.617V129H178V121.608L174.75 124.684C170.155 129.033 167.842 130 162.034 130C155.619 130 151.151 128.157 147.742 124.105C143.715 119.319 143.012 115.109 143.006 95.75L143 78H156.5L156.279 93.25C156.154 101.819 156.516 109.923 157.105 111.747C158.917 117.361 164.525 119.54 170.343 116.89C174.604 114.948 175.396 111.668 175.797 94.301L176.17 78.103L180.835 77.801C189.697 77.229 189 75.025 189 103.617ZM219 129H206V88H199V78H219V129ZM337.324 91.618C335.447 93.608 334.082 95.745 334.289 96.368C334.539 97.118 338.342 97.5 345.57 97.5C355.166 97.5 356.513 97.29 356.81 95.747C356.996 94.783 355.799 92.645 354.151 90.997C351.589 88.435 350.398 88 345.945 88C341.255 88 340.396 88.36 337.324 91.618Z" fill="white"/>
</svg>
